# File created by Blade
# Date/Time:  Wed Jan 21 14:37:15 2015
# Frame Rate: 120.000 fps
#------------------------------------------------------
:FULLY-SPECIFIED
:DEGREES
694
root 18.757806 35.577798 -21.409573 -173.644989 -0.772880 -178.129000
Spine -20.547120 -15.593206 5.783371
Head 7.416874 9.435201 2.851404
LeftShoulder 82.242081 -77.947808 -37.792631
LeftArm 47.452913 43.398547 -94.433296
LeftForeArm 36.050734 -0.000000 80.916735
LeftHand -2.310615 -0.000000 -10.693050
LeftHandThumb1 -26.253704 0.000000 33.147579
RightShoulder 10.858532 2.220828 6.596910
RightArm 48.067534 -16.922512 54.981794
RightForeArm 31.315355 -0.000000 126.992592
RightHand 4.354471 0.000000 -4.202728
RightHandThumb1 -24.326973 -0.000000 -32.862282
LeftUpLeg 0.492321 13.676507 2.129993
LeftLeg -5.958395 -0.000000 0.000000
LeftFoot -19.637310 29.541989 -11.606284
LeftToeBase 26.947741 -0.000000 -0.000000
RightUpLeg -0.305844 -8.828789 1.955700
RightLeg -3.570136 -0.000000 0.000000
RightFoot -19.193055 -24.984030 14.245885
RightToeBase 23.739893 -0.000000 -0.000000
695
root 18.761156 35.578549 -21.400492 -173.655230 -0.785382 -178.134303
Spine -20.501181 -15.509714 5.715950
Head 7.418095 9.356123 2.922954
LeftShoulder 81.280990 -77.942142 -36.906878
LeftArm 47.542927 43.470416 -94.267637
LeftForeArm 35.952623 -0.000000 81.232559
LeftHand -2.344478 0.000000 -10.725084
LeftHandThumb1 -26.253704 0.000000 33.147579
RightShoulder 10.818947 2.179910 6.615068
RightArm 48.121739 -17.001499 54.882338
RightForeArm 30.970597 -0.000000 126.819103
RightHand 4.238391 -0.000000 -4.248396
RightHandThumb1 -24.326973 -0.000000 -32.862282
LeftUpLeg 0.481543 13.665348 2.130012
LeftLeg -5.955684 -0.000000 0.000000
LeftFoot -19.686818 29.536203 -11.681685
LeftToeBase 27.055087 -0.000000 -0.000000
RightUpLeg -0.311233 -8.839043 1.955942
RightLeg -3.564537 -0.000000 0.000000
RightFoot -19.201485 -24.968863 14.255094
RightToeBase 23.728892 -0.000000 -0.000000
696
root 18.763856 35.578884 -21.391075 -173.666153 -0.801980 -178.131400
Spine -20.457015 -15.428972 5.675546
Head 7.414539 9.253785 2.950764
LeftShoulder 80.348529 -77.937256 -36.081824
LeftArm 47.676578 43.541592 -94.052458
LeftForeArm 35.844787 -0.000000 81.513808
LeftHand -2.353444 -0.000000 -10.696289
LeftHandThumb1 -26.253704 0.000000 33.147579
RightShoulder 10.786150 2.182457 6.620150
RightArm 48.118551 -17.106040 54.819699
RightForeArm 30.417857 -0.000000 126.624293
RightHand 4.196875 -0.000000 -4.382066
RightHandThumb1 -24.326973 -0.000000 -32.862282
LeftUpLeg 0.465886 13.647466 2.135929
LeftLeg -5.934919 -0.000000 0.000000
LeftFoot -19.621958 29.540023 -11.611766
LeftToeBase 26.853963 -0.000000 -0.000000
RightUpLeg -0.323235 -8.869082 1.966033
RightLeg -3.548491 -0.000000 0.000000
RightFoot -19.190856 -24.970250 14.218625
RightToeBase 23.795021 -0.000000 -0.000000
697
root 18.767489 35.579056 -21.382132 -173.673208 -0.821753 -178.128402
Spine -20.423465 -15.336842 5.620827
Head 7.452101 9.215766 2.938615
LeftShoulder 79.322000 -77.909474 -35.131938
LeftArm 47.767471 43.578662 -93.881557
LeftForeArm 35.751419 -0.000000 81.853172
LeftHand -2.354856 -0.000000 -10.738584
LeftHandThumb1 -26.253704 0.000000 33.147579
RightShoulder 10.716967 2.140223 6.634246
RightArm 48.170507 -17.158519 54.764879
RightForeArm 30.005391 -0.000000 126.366996
RightHand 4.005828 -0.000000 -4.390349
RightHandThumb1 -24.326973 -0.000000 -32.862282
LeftUpLeg 0.445841 13.648966 2.143312
LeftLeg -5.918498 -0.000000 0.000000
LeftFoot -19.607290 29.521926 -11.591217
LeftToeBase 26.909997 -0.000000 -0.000000
RightUpLeg -0.328759 -8.874349 1.976662
RightLeg -3.552897 -0.000000 0.000000
RightFoot -19.174314 -24.959315 14.281110
RightToeBase 23.605143 -0.000000 -0.000000
698
root 18.771275 35.579482 -21.372103 -173.680918 -0.853266 -178.125949
Spine -20.388545 -15.258586 5.574880
Head 7.483308 9.144287 2.945286
LeftShoulder 78.329994 -77.898532 -34.226887
LeftArm 47.873174 43.647195 -93.668719
LeftForeArm 35.682309 -0.000000 82.205967
LeftHand -2.408717 0.000000 -10.699532
LeftHandThumb1 -26.253704 0.000000 33.147579
RightShoulder 10.648597 2.128078 6.658305
RightArm 48.221316 -17.235459 54.739038
RightForeArm 29.513854 -0.000000 125.996219
RightHand 4.245445 -0.000000 -4.177294
RightHandThumb1 -24.326973 -0.000000 -32.862282
LeftUpLeg 0.422274 13.633972 2.151071
LeftLeg -5.902193 -0.000000 0.000000
LeftFoot -19.596085 29.513812 -11.570443
LeftToeBase 26.874656 -0.000000 -0.000000
RightUpLeg -0.338316 -8.913649 1.989693
RightLeg -3.543405 -0.000000 0.000000
RightFoot -19.167937 -24.975273 14.206489
RightToeBase 23.750193 -0.000000 -0.000000
699
root 18.774817 35.580028 -21.362106 -173.678763 -0.887005 -178.125946
Spine -20.381278 -15.193867 5.541752
Head 7.548147 9.062609 2.913910
LeftShoulder 76.725193 -77.828327 -32.763827
LeftArm 48.148079 43.740136 -93.309928
LeftForeArm 35.523748 -0.000000 82.516613
LeftHand -2.435080 -0.000000 -10.624754
LeftHandThumb1 -26.253704 0.000000 33.147579
RightShoulder 10.576515 2.082763 6.665011
RightArm 48.285791 -17.269602 54.770221
RightForeArm 28.690666 0.000000 125.593199
RightHand 4.238651 0.000000 -3.918204
RightHandThumb1 -24.326973 -0.000000 -32.862282
LeftUpLeg 0.388415 13.617604 2.151934
LeftLeg -5.886954 -0.000000 0.000000
LeftFoot -19.581034 29.501898 -11.577224
LeftToeBase 26.864513 -0.000000 -0.000000
RightUpLeg -0.351503 -8.909972 1.998540
RightLeg -3.546370 -0.000000 0.000000
RightFoot -19.171612 -25.008377 14.204477
RightToeBase 23.766267 -0.000000 -0.000000
700
root 18.778648 35.580912 -21.352732 -173.681832 -0.918841 -178.123852
Spine -20.363142 -15.132163 5.505794
Head 7.577990 9.011319 2.940418
LeftShoulder 75.655022 -77.831634 -31.820884
LeftArm 48.202435 43.825936 -93.089715
LeftForeArm 35.307746 -0.000000 82.878258
LeftHand -2.451289 -0.000000 -10.479609
LeftHandThumb1 -26.253704 0.000000 33.147579
RightShoulder 10.486031 2.057449 6.689262
RightArm 48.312712 -17.289641 54.817514
RightForeArm 27.813612 -0.000000 125.114964
RightHand 4.471589 -0.000000 -3.476134
RightHandThumb1 -24.326973 -0.000000 -32.862282
LeftUpLeg 0.370491 13.585547 2.159605
LeftLeg -5.889188 -0.000000 0.000000
LeftFoot -19.549057 29.518349 -11.553832
LeftToeBase 26.716476 -0.000000 -0.000000
RightUpLeg -0.356187 -8.917893 2.009309
RightLeg -3.556169 -0.000000 0.000000
RightFoot -19.155366 -25.020057 14.202311
RightToeBase 23.789162 -0.000000 -0.000000
701
root 18.782017 35.581638 -21.343920 -173.692476 -0.956131 -178.123095
Spine -20.345125 -15.087107 5.473125
Head 7.637561 8.981028 2.946248
LeftShoulder 73.128204 -77.797655 -29.504928
LeftArm 48.677820 44.009695 -92.569082
LeftForeArm 34.999550 -0.000000 83.170028
LeftHand -2.477798 -0.000000 -10.194862
LeftHandThumb1 -26.253704 0.000000 33.147579
RightShoulder 10.377443 2.071554 6.724275
RightArm 48.344240 -17.344959 54.859604
RightForeArm 26.736505 -0.000000 124.544642
RightHand 4.421601 -0.000000 -3.584061
RightHandThumb1 -24.326973 -0.000000 -32.862282
LeftUpLeg 0.359302 13.555082 2.166396
LeftLeg -5.886648 -0.000000 0.000000
LeftFoot -19.536392 29.509106 -11.553313
LeftToeBase 26.837611 -0.000000 -0.000000
RightUpLeg -0.355947 -8.938157 2.018182
RightLeg -3.560608 -0.000000 0.000000
RightFoot -19.145252 -25.014523 14.258599
RightToeBase 23.657373 -0.000000 -0.000000
702
root 18.784541 35.582173 -21.335620 -173.694802 -0.984414 -178.120749
Spine -20.353795 -15.034690 5.466590
Head 7.738417 8.955184 2.874517
LeftShoulder 70.940716 -77.713433 -27.532326
LeftArm 49.045740 44.172385 -92.018946
LeftForeArm 34.698361 -0.000000 83.545661
LeftHand -2.445531 -0.000000 -9.923707
LeftHandThumb1 -26.253704 0.000000 33.147579
RightShoulder 10.261025 2.048922 6.724300
RightArm 48.401572 -17.388383 54.909179
RightForeArm 25.450207 -0.000000 123.883466
RightHand 4.381253 -0.000000 -3.396468
RightHandThumb1 -24.326973 -0.000000 -32.862282
LeftUpLeg 0.346543 13.545698 2.170983
LeftLeg -5.895769 -0.000000 0.000000
LeftFoot -19.506708 29.493840 -11.536835
LeftToeBase 26.834564 -0.000000 -0.000000
RightUpLeg -0.360721 -8.943472 2.028030
RightLeg -3.566336 -0.000000 0.000000
RightFoot -19.136905 -25.048885 14.223723
RightToeBase 23.693660 -0.000000 -0.000000
